<svg width="65" height="53" viewBox="0 0 65 53" fill="none" xmlns="http://www.w3.org/2000/svg">
<path d="M0.757586 21.8833C0.233105 21.0317 0 19.6691 0 17.7388C0 12.7426 0 10.2445 0 5.24839C0 3.31805 0.233105 1.89869 0.757586 0.990301C1.22379 0.0819098 1.98137 -0.145188 2.91379 0.0819096C3.8462 0.309007 4.60378 0.990301 5.06999 2.01224C5.59447 3.03418 5.82757 4.28322 5.82757 5.92968C5.82757 6.61097 5.82757 6.95162 5.82757 7.68969C5.06999 7.63291 4.72034 7.63291 3.96275 7.57614C3.96275 6.7813 3.96275 6.38388 3.96275 5.53226C3.96275 4.1129 3.61309 3.37483 2.97206 3.26128C2.33103 3.14773 1.98138 3.82902 1.98138 5.30516C1.98138 10.2445 1.98138 12.6858 1.98138 17.5684C1.98138 19.0446 2.33103 19.6691 2.97206 19.4988C3.67137 19.3285 3.96275 18.5336 3.96275 17.171C3.96275 15.5246 3.96275 14.6729 3.96275 13.0265C3.55482 13.0833 3.37999 13.0833 2.97206 13.0833C2.97206 11.8342 2.97206 11.2097 2.97206 9.96067C4.0793 9.96067 4.66206 9.96067 5.82757 9.96067C5.82757 12.6291 5.82757 13.9349 5.82757 16.6033C5.82757 18.2497 5.59447 19.5556 5.06999 20.5775C4.5455 21.5994 3.8462 22.2807 2.91379 22.6214C1.98137 22.9052 1.22379 22.7349 0.757586 21.8833Z" fill="white"/>
<path d="M7.98828 1.66406C9.1538 1.89116 9.73655 2.06148 10.9021 2.28858C11.951 2.45891 12.6503 2.96987 13.1748 3.65117C13.641 4.38924 13.8741 5.3544 13.8741 6.66022C13.8741 7.05764 13.8741 7.28473 13.8741 7.68216C13.8741 9.44216 13.4662 10.5209 12.5921 10.9751V11.0318C13.0583 11.2589 13.4079 11.5996 13.641 12.2241C13.8159 12.7919 13.9324 13.5867 13.9324 14.6086C13.9324 15.8009 13.9324 16.3686 13.9324 17.5609C13.9324 18.0151 13.9324 18.4125 13.9907 18.6964C13.9907 18.9803 14.049 19.2641 14.1655 19.548C13.3497 19.6616 12.9417 19.7751 12.1259 19.8887C12.0676 19.6048 12.0093 19.3777 12.0093 19.0938C12.0093 18.8667 11.951 18.4125 11.951 17.7312C11.951 16.4254 11.951 15.8009 11.951 14.5519C11.951 13.757 11.8345 13.1893 11.6597 12.9054C11.4848 12.5648 11.1352 12.4512 10.669 12.4512C10.3776 12.4512 10.261 12.4512 9.96966 12.4512C9.96966 15.5738 9.96966 17.1635 9.96966 20.2861C9.1538 20.4564 8.80414 20.57 7.98828 20.7403C7.98828 14.3815 7.98828 8.0228 7.98828 1.66406ZM10.7272 9.89636C11.1352 9.89636 11.4266 9.78281 11.6014 9.49894C11.7762 9.21507 11.8928 8.76087 11.8928 8.07958C11.8928 7.51183 11.8928 7.28473 11.8928 6.71699C11.8928 6.09247 11.8345 5.63827 11.6597 5.29763C11.4848 5.01376 11.2517 4.78666 10.9021 4.78666C10.5524 4.72988 10.3776 4.72988 9.96966 4.67311C9.96966 6.77376 9.96966 7.7957 9.96966 9.89636C10.261 9.89636 10.4359 9.89636 10.7272 9.89636Z" fill="white"/>
<path d="M17.7138 3.30469C18.821 3.41824 19.3455 3.53179 20.4528 3.64533C21.1521 8.64149 21.7931 13.5809 22.5507 18.577C21.7348 18.6338 21.3269 18.6906 20.5693 18.7473C20.3945 17.5551 20.3362 16.9873 20.2196 15.7951C20.2196 15.7951 20.2196 15.7951 20.2196 15.8518C19.2872 15.9086 18.8793 15.9086 17.9469 16.0222C17.8303 17.2712 17.7138 17.8957 17.5972 19.1448C16.8397 19.2583 16.49 19.3151 15.7324 19.3719C16.3152 13.9783 17.0145 8.64149 17.7138 3.30469ZM19.9283 13.7512C19.5786 10.7421 19.4038 9.26601 19.0541 6.14341C19.0541 6.14341 19.0541 6.14341 18.9959 6.14341C18.6462 9.15246 18.4714 10.6854 18.1217 13.808C18.821 13.808 19.1707 13.808 19.9283 13.7512Z" fill="white"/>
<path d="M24.4199 4.04883C25.6437 4.16238 26.2265 4.16238 27.4503 4.21915C28.4992 4.27593 29.2568 4.5598 29.723 5.07077C30.1892 5.58174 30.4223 6.43336 30.4223 7.51207C30.4223 7.73917 30.4223 7.85272 30.4223 8.07981C30.4223 8.81788 30.3058 9.38563 30.0727 9.83982C29.8396 10.294 29.5482 10.6347 29.082 10.805C29.082 10.805 29.082 10.805 29.082 10.8618C30.0727 11.2592 30.5972 12.2243 30.5972 13.7573C30.5972 14.2115 30.5972 14.4953 30.5972 14.9495C30.5972 16.0282 30.3058 16.8231 29.8396 17.3908C29.3151 17.9586 28.5575 18.2424 27.5668 18.2992C26.2848 18.356 25.6437 18.356 24.4199 18.4695C24.4199 13.6437 24.4199 8.81788 24.4199 4.04883ZM27.2172 9.95337C27.6251 9.95337 27.9165 9.83982 28.1496 9.61273C28.3244 9.38563 28.441 8.98821 28.441 8.47724C28.441 8.19336 28.441 8.02304 28.441 7.68239C28.441 7.17142 28.3827 6.83078 28.2078 6.60368C28.033 6.37658 27.7999 6.26303 27.4503 6.26303C27.0423 6.26303 26.8675 6.26303 26.4596 6.20626C26.4596 7.68239 26.4596 8.47724 26.4596 9.95337C26.751 9.95337 26.8675 9.95337 27.2172 9.95337ZM27.5668 16.2553C27.9165 16.2553 28.2079 16.1418 28.3244 15.9147C28.4992 15.6876 28.5575 15.3469 28.5575 14.836C28.5575 14.325 28.5575 14.0979 28.5575 13.6437C28.5575 13.0192 28.4409 12.565 28.2661 12.3379C28.0913 12.1108 27.7416 11.9405 27.2754 11.9405C26.9258 11.9405 26.751 11.9405 26.4013 11.9405C26.4013 13.7005 26.4013 14.5521 26.4013 16.3121C26.8675 16.3121 27.1006 16.3121 27.5668 16.2553Z" fill="white"/>
<path d="M36.678 12.6073C35.6874 9.37115 35.2212 7.83824 34.2305 4.65887C35.1046 4.65887 35.5125 4.6021 36.3867 4.6021C36.9112 6.64598 37.2025 7.66792 37.7853 9.7118C37.7853 9.7118 37.7853 9.7118 37.8436 9.7118C38.368 7.61114 38.6594 6.5892 39.2422 4.48855C39.9998 4.43177 40.4077 4.43177 41.2236 4.375C40.2329 7.78147 39.7667 9.42793 38.776 12.6641C38.776 15.1054 38.776 16.2976 38.776 18.6822C37.9601 18.6254 37.5522 18.6254 36.7363 18.6254C36.6781 16.1841 36.678 14.9918 36.678 12.6073Z" fill="white"/>
<path d="M43.2595 18.2343C42.7351 17.553 42.502 16.6446 42.502 15.4523C42.502 12.3865 42.502 10.7968 42.502 7.73099C42.502 6.53873 42.7933 5.63034 43.2595 4.94904C43.784 4.26775 44.5416 3.81355 45.5323 3.7C46.523 3.58646 47.2806 3.81355 47.805 4.43807C48.3295 5.06259 48.5626 6.02776 48.5626 7.33357C48.5626 10.6833 48.5626 12.3865 48.5626 15.793C48.5626 17.0988 48.3295 18.0639 47.805 18.6885C47.2806 19.313 46.523 19.5401 45.5323 19.4833C44.5416 19.313 43.784 18.9156 43.2595 18.2343ZM46.5813 15.793C46.5813 12.3865 46.5813 10.6833 46.5813 7.33357C46.5813 6.31163 46.2316 5.85743 45.5323 5.91421C44.833 5.97098 44.4833 6.48195 44.4833 7.50389C44.4833 10.7968 44.4833 12.4433 44.4833 15.7362C44.4833 16.7014 44.833 17.2691 45.5323 17.3259C46.2316 17.2691 46.5813 16.8149 46.5813 15.793Z" fill="white"/>
<path d="M51.4841 19.1439C50.9597 18.3491 50.7266 17.2704 50.7266 15.9078C50.7266 11.6497 50.7266 7.39162 50.7266 3.13354C51.5424 3.01999 51.9503 2.96321 52.7079 2.79289C52.7079 7.27807 52.7079 11.7633 52.7079 16.2484C52.7079 16.8162 52.8245 17.2704 52.9993 17.5542C53.1741 17.8381 53.4072 18.0084 53.7569 18.0652C54.1066 18.122 54.3397 18.0084 54.5145 17.7813C54.6893 17.5542 54.8059 17.1 54.8059 16.4755C54.8059 11.7633 54.8059 7.10775 54.8059 2.39547C55.5634 2.22515 55.9714 2.16837 56.729 1.99805C56.729 6.82387 56.729 11.6497 56.729 16.4755C56.729 18.0084 56.4959 19.1439 55.9714 19.882C55.4469 20.5633 54.7476 20.7904 53.7569 20.6201C52.7662 20.4497 52.0086 19.9388 51.4841 19.1439Z" fill="white"/>
<path d="M58.9395 1.53604C60.105 1.25216 60.6877 1.13861 61.8532 0.797968C62.8439 0.514095 63.6015 0.741194 64.0677 1.47926C64.5339 2.21733 64.767 3.57992 64.767 5.3967C64.767 5.96444 64.767 6.24832 64.767 6.87284C64.767 9.31414 64.3591 10.847 63.485 11.4716V11.5283C63.9512 11.8122 64.3008 12.38 64.4756 13.2316C64.6505 14.0832 64.767 15.2187 64.767 16.5813C64.767 18.2277 64.767 19.0793 64.767 20.7258C64.767 21.4071 64.767 21.9181 64.8253 22.3723C64.8253 22.7697 64.8836 23.2239 65.0001 23.6781C64.1843 23.3374 63.7763 23.2239 63.0188 22.94C62.9605 22.5426 62.9022 22.2019 62.9022 21.8613C62.9022 21.5206 62.8439 20.9529 62.8439 20.1013C62.8439 18.4548 62.8439 17.66 62.8439 16.0135C62.8439 14.9916 62.7274 14.2535 62.5525 13.8561C62.3777 13.4587 62.0281 13.2316 61.6201 13.1748C61.3288 13.1748 61.2122 13.118 60.9208 13.118C60.9208 16.7516 60.9208 18.5684 60.9208 22.2019C60.1632 21.9748 59.7553 21.8613 58.9395 21.6342C58.9395 14.9348 58.9395 8.23542 58.9395 1.53604ZM61.6201 10.109C62.0281 10.109 62.3194 9.93866 62.4943 9.54123C62.6691 9.20059 62.7856 8.57607 62.7856 7.72445C62.7856 7.04316 62.7856 6.70251 62.7856 6.02122C62.7856 5.22638 62.7274 4.65863 62.5525 4.31798C62.3777 3.97734 62.1446 3.86379 61.795 3.92056C61.4453 3.97734 61.2705 4.03411 60.9208 4.09089C60.9208 6.53219 60.9208 7.72445 60.9208 10.1658C61.2122 10.109 61.3288 10.109 61.6201 10.109Z" fill="white"/>
<path d="M4.51241 51.7826C3.73017 51.1498 3.36914 49.613 3.36914 47.2627C3.36914 46.6299 3.36914 46.2683 3.36914 45.6355C4.57258 44.9123 5.1743 44.6411 6.37774 44.0083C6.37774 44.7315 6.37774 45.0931 6.37774 45.9067C6.37774 47.6243 6.91929 48.1666 8.00238 47.6243C8.54393 47.3531 8.96514 46.9011 9.266 46.3587C9.56686 45.8163 9.6872 45.0931 9.6872 44.1891C9.6872 43.1043 9.50669 42.2907 9.14565 41.6579C8.78462 41.0251 8.06256 40.3019 6.97946 39.5787C5.65568 38.5843 4.75309 37.4996 4.21155 36.4148C3.67 35.33 3.42931 33.8836 3.42931 32.2564C3.42931 29.9964 3.85052 28.0981 4.63275 26.8325C5.47516 25.4765 6.61843 24.7533 8.1829 24.5725C9.74738 24.3917 10.8906 24.8437 11.6729 25.7477C12.4551 26.7421 12.8763 28.1885 12.8161 30.0868C12.8161 30.4484 12.8161 30.7196 12.8161 31.0812C11.6127 31.3524 11.011 31.4428 9.74737 31.8044C9.74737 31.262 9.74737 30.9908 9.74737 30.5388C9.74737 29.6348 9.62703 29.0924 9.32617 28.7308C9.02531 28.3692 8.66428 28.2788 8.12273 28.3692C7.03963 28.55 6.49808 29.5444 6.49808 31.262C6.49808 32.2564 6.6786 33.07 7.0998 33.7932C7.52101 34.5164 8.1829 35.33 9.266 36.1436C10.5898 37.138 11.4924 38.1323 12.0339 39.1267C12.5755 40.1211 12.8161 41.2963 12.756 42.8331C12.756 44.8219 12.3348 46.4491 11.4924 47.9859C10.65 49.5226 9.44652 50.6978 7.88204 51.6018C6.43791 52.1442 5.29464 52.4154 4.51241 51.7826Z" fill="white"/>
<path d="M16.1869 23.8451C19.737 23.5739 21.482 23.4835 25.0924 23.3027C25.0924 24.4779 25.0924 25.1107 25.0924 26.2859C22.8058 26.3763 21.7227 26.4667 19.4362 26.7379C19.4362 29.0883 19.4362 30.2635 19.4362 32.6138C21.2413 32.3426 22.1439 32.1618 23.9491 31.981C23.9491 33.1562 23.9491 33.789 23.9491 34.9642C22.1439 35.2354 21.2413 35.3258 19.4362 35.6874C19.4362 38.3994 19.4362 39.7554 19.4362 42.4673C21.6626 41.8346 22.8058 41.6538 25.0924 41.2922C25.0924 42.4673 25.0924 43.1001 25.0924 44.2753C21.482 44.9081 19.737 45.3601 16.1869 46.7161C16.1267 39.213 16.1869 31.5291 16.1869 23.8451Z" fill="white"/>
<path d="M30.924 23.2168C32.6689 23.2168 33.5715 23.2168 35.3767 23.2168C36.5199 30.1775 37.6632 37.1383 38.8065 44.1894C37.4827 44.0086 36.8208 43.9182 35.497 43.8278C35.2563 42.2006 35.136 41.2966 34.8953 39.6694C34.8953 39.6694 34.8953 39.6694 34.8953 39.7598C33.391 39.6694 32.6689 39.6694 31.1646 39.7598C30.924 41.387 30.8036 42.2006 30.5629 43.8278C29.3595 43.9182 28.6976 43.9182 27.4941 44.099C28.6374 37.0479 29.7807 30.0871 30.924 23.2168ZM34.5343 36.9575C33.9326 32.8895 33.6317 30.8103 33.0901 26.7424H33.03C32.4884 30.8103 32.1876 32.7991 31.5858 36.9575C32.7291 36.9575 33.3308 36.9575 34.5343 36.9575Z" fill="white"/>
<path d="M42.9689 26.5468C41.5849 26.4564 40.923 26.366 39.5391 26.366C39.5391 25.1908 39.5391 24.558 39.5391 23.3828C43.5706 23.5636 45.6164 23.654 49.5878 24.0156C49.5878 25.3716 49.5878 26.0044 49.5878 27.3604C48.2038 27.1796 47.5419 27.0892 46.2182 26.9084C46.2182 33.2363 46.2783 39.6546 46.3385 45.9826C45.0147 45.5306 44.3528 45.3498 43.0892 45.0786C43.029 37.6659 43.029 33.9595 42.9689 26.5468Z" fill="white"/>
<path d="M53.3792 47.6284C52.597 46.182 52.1758 44.5548 52.1758 42.566C52.1758 42.0236 52.1758 41.7524 52.1758 41.21C53.3792 41.662 53.9809 41.9332 55.2446 42.3852C55.2446 43.1084 55.2446 43.47 55.2446 44.1028C55.2446 45.73 55.7861 46.8148 56.9294 47.4476C57.4709 47.7188 57.8921 47.8092 58.1328 47.538C58.4337 47.2668 58.554 46.634 58.554 45.73C58.554 44.6452 58.3735 43.47 57.9523 42.4756C57.5913 41.4812 56.8692 40.1252 55.7861 38.5885C54.4623 36.6901 53.5597 35.1533 53.0182 33.8877C52.4766 32.6221 52.236 31.3565 52.236 29.9101C52.236 28.0118 52.6572 26.5654 53.4394 25.6614C54.2818 24.667 55.4251 24.3054 56.9895 24.4862C58.554 24.667 59.6973 25.3902 60.4795 26.7462C61.2618 28.1022 61.6228 30.0005 61.6228 32.2605C61.6228 32.7125 61.6228 32.9837 61.6228 33.4357C60.4194 33.0741 59.8176 32.8933 58.6142 32.5317C58.6142 31.9893 58.6142 31.7181 58.6142 31.1757C58.6142 30.2717 58.4938 29.5485 58.193 29.0966C57.8921 28.6446 57.5311 28.3734 56.9895 28.1926C55.9064 28.0118 55.3649 28.735 55.3649 30.3621C55.3649 31.2661 55.5454 32.1701 55.9666 33.0741C56.3878 33.9781 57.1099 35.1533 58.1328 36.7805C59.4566 38.7693 60.3592 40.6676 60.9007 42.2044C61.3821 43.7412 61.6228 45.4588 61.6228 47.2668C61.6228 49.6171 61.2016 51.1539 60.4194 51.7867C59.6371 52.4195 58.4337 52.2387 56.8692 51.2443C55.3649 50.2499 54.1615 49.0748 53.3792 47.6284Z" fill="white"/>
</svg>
