<svg width="59" height="47" viewBox="0 0 59 47" fill="none" xmlns="http://www.w3.org/2000/svg">
<path d="M0.682644 19.7186C0.210045 18.9512 0 17.7234 0 15.984C0 11.4821 0 9.23113 0 4.7292C0 2.98982 0.210045 1.71087 0.682644 0.892338C1.10273 0.0738071 1.78537 -0.130826 2.62555 0.0738069C3.46572 0.27844 4.14836 0.892338 4.56845 1.81319C5.04105 2.73403 5.25109 3.85951 5.25109 5.3431C5.25109 5.957 5.25109 6.26395 5.25109 6.92901C4.56845 6.87785 4.25339 6.87785 3.57075 6.82669C3.57075 6.11047 3.57075 5.75237 3.57075 4.98499C3.57075 3.70604 3.25568 3.04098 2.67806 2.93867C2.10044 2.83635 1.78537 3.45025 1.78537 4.78036C1.78537 9.23113 1.78537 11.4309 1.78537 15.8305C1.78537 17.1606 2.10044 17.7234 2.67806 17.5699C3.30819 17.4164 3.57075 16.7002 3.57075 15.4724C3.57075 13.9888 3.57075 13.2215 3.57075 11.7379C3.20317 11.789 3.04563 11.789 2.67806 11.789C2.67806 10.6636 2.67806 10.1008 2.67806 8.97534C3.67577 8.97534 4.20088 8.97534 5.25109 8.97534C5.25109 11.3798 5.25109 12.5564 5.25109 14.9608C5.25109 16.4444 5.04105 17.6211 4.56845 18.5419C4.09585 19.4628 3.46572 20.0767 2.62555 20.3836C1.78537 20.6394 1.10273 20.4859 0.682644 19.7186Z" fill="#3C1D8F"/>
<path d="M7.19727 1.5C8.24748 1.70463 8.77259 1.85811 9.82281 2.06274C10.768 2.21621 11.3981 2.67664 11.8707 3.29054C12.2908 3.95559 12.5009 4.82528 12.5009 6.00192C12.5009 6.36003 12.5009 6.56466 12.5009 6.92277C12.5009 8.50867 12.1333 9.48068 11.3456 9.88994V9.9411C11.7657 10.1457 12.0808 10.4527 12.2908 11.0154C12.4484 11.527 12.5534 12.2432 12.5534 13.1641C12.5534 14.2384 12.5534 14.75 12.5534 15.8243C12.5534 16.2336 12.5534 16.5917 12.6059 16.8475C12.6059 17.1032 12.6584 17.359 12.7634 17.6148C12.0283 17.7171 11.6607 17.8195 10.9255 17.9218C10.873 17.666 10.8205 17.4614 10.8205 17.2056C10.8205 17.0009 10.768 16.5917 10.768 15.9778C10.768 14.8011 10.768 14.2384 10.768 13.1129C10.768 12.3967 10.663 11.8851 10.5055 11.6293C10.3479 11.3224 10.0329 11.2201 9.61277 11.2201C9.35022 11.2201 9.24519 11.2201 8.98264 11.2201C8.98264 14.0338 8.98264 15.4662 8.98264 18.2799C8.24749 18.4334 7.93242 18.5357 7.19727 18.6892C7.19727 12.9594 7.19727 7.22972 7.19727 1.5ZM9.66528 8.91794C10.0329 8.91794 10.2954 8.81562 10.4529 8.55983C10.6105 8.30404 10.7155 7.89477 10.7155 7.28088C10.7155 6.76929 10.7155 6.56466 10.7155 6.05308C10.7155 5.49034 10.663 5.08107 10.5055 4.77412C10.3479 4.51833 10.1379 4.3137 9.82281 4.3137C9.50775 4.26254 9.35022 4.26254 8.98264 4.21138C8.98264 6.10424 8.98264 7.02509 8.98264 8.91794C9.24519 8.91794 9.40273 8.91794 9.66528 8.91794Z" fill="#3C1D8F"/>
<path d="M15.9612 2.97852C16.9589 3.08083 17.4315 3.18315 18.4292 3.28547C19.0593 7.78739 19.6369 12.2381 20.3196 16.7401C19.5844 16.7912 19.2168 16.8424 18.5342 16.8935C18.3767 15.8192 18.3241 15.3076 18.2191 14.2333C18.2191 14.2333 18.2191 14.2333 18.2191 14.2845C17.3789 14.3356 17.0114 14.3356 16.1712 14.438C16.0662 15.5634 15.9612 16.1262 15.8561 17.2517C15.1735 17.354 14.8584 17.4051 14.1758 17.4563C14.7009 12.5963 15.331 7.78739 15.9612 2.97852ZM17.9566 12.3916C17.6415 9.68024 17.484 8.35013 17.1689 5.53643C17.1689 5.53643 17.1689 5.53643 17.1164 5.53643C16.8013 8.24781 16.6438 9.62908 16.3287 12.4428C16.9589 12.4428 17.2739 12.4428 17.9566 12.3916Z" fill="#3C1D8F"/>
<path d="M22.0039 3.64844C23.1066 3.75075 23.6318 3.75075 24.7345 3.80191C25.6797 3.85307 26.3623 4.10886 26.7824 4.56929C27.2025 5.02971 27.4125 5.79708 27.4125 6.76909C27.4125 6.97372 27.4125 7.07604 27.4125 7.28067C27.4125 7.94573 27.3075 8.45731 27.0975 8.86657C26.8874 9.27584 26.6249 9.58279 26.2048 9.73626C26.2048 9.73626 26.2048 9.73626 26.2048 9.78742C27.0975 10.1455 27.5701 11.0152 27.5701 12.3965C27.5701 12.8058 27.5701 13.0615 27.5701 13.4708C27.5701 14.4428 27.3075 15.159 26.8874 15.6706C26.4148 16.1822 25.7322 16.438 24.8395 16.4891C23.6843 16.5403 23.1066 16.5403 22.0039 16.6426C22.0039 12.2942 22.0039 7.94573 22.0039 3.64844ZM24.5244 8.96889C24.892 8.96889 25.1546 8.86657 25.3646 8.66194C25.5221 8.45731 25.6272 8.0992 25.6272 7.63878C25.6272 7.38299 25.6272 7.22951 25.6272 6.92256C25.6272 6.46214 25.5747 6.15519 25.4171 5.95056C25.2596 5.74592 25.0495 5.64361 24.7345 5.64361C24.3669 5.64361 24.2094 5.64361 23.8418 5.59245C23.8418 6.92256 23.8418 7.63878 23.8418 8.96889C24.1043 8.96889 24.2094 8.96889 24.5244 8.96889ZM24.8395 14.6474C25.1546 14.6474 25.4171 14.5451 25.5221 14.3405C25.6797 14.1359 25.7322 13.8289 25.7322 13.3685C25.7322 12.9081 25.7322 12.7034 25.7322 12.2942C25.7322 11.7314 25.6272 11.3222 25.4696 11.1175C25.3121 10.9129 24.997 10.7594 24.5769 10.7594C24.2619 10.7594 24.1043 10.7594 23.7893 10.7594C23.7893 12.3453 23.7893 13.1127 23.7893 14.6986C24.2094 14.6986 24.4194 14.6986 24.8395 14.6474Z" fill="#3C1D8F"/>
<path d="M33.0492 11.3593C32.1565 8.44333 31.7364 7.06205 30.8438 4.1972C31.6314 4.1972 31.999 4.14604 32.7867 4.14604C33.2593 5.98773 33.5218 6.90858 34.0469 8.75028C34.0469 8.75028 34.0469 8.75028 34.0994 8.75028C34.572 6.85742 34.8346 5.93658 35.3597 4.04372C36.0423 3.99256 36.4099 3.99256 37.1451 3.94141C36.2524 7.0109 35.8323 8.49449 34.9396 11.4105C34.9396 13.6103 34.9396 14.6846 34.9396 16.8333C34.2045 16.7821 33.8369 16.7821 33.1017 16.7821C33.0492 14.5823 33.0492 13.508 33.0492 11.3593Z" fill="#3C1D8F"/>
<path d="M38.9795 16.4304C38.5069 15.8165 38.2969 14.998 38.2969 13.9237C38.2969 11.1611 38.2969 9.72871 38.2969 6.96617C38.2969 5.89185 38.5594 5.07332 38.9795 4.45942C39.4521 3.84552 40.1348 3.43626 41.0275 3.33394C41.9201 3.23162 42.6028 3.43626 43.0754 3.999C43.548 4.56174 43.758 5.43143 43.758 6.60806C43.758 9.6264 43.758 11.1611 43.758 14.2306C43.758 15.4073 43.548 16.277 43.0754 16.8397C42.6028 17.4024 41.9201 17.6071 41.0275 17.5559C40.1348 17.4024 39.4521 17.0443 38.9795 16.4304ZM41.9726 14.2306C41.9726 11.1611 41.9726 9.6264 41.9726 6.60806C41.9726 5.68722 41.6576 5.27795 41.0275 5.32911C40.3973 5.38027 40.0823 5.84069 40.0823 6.76154C40.0823 9.72871 40.0823 11.2123 40.0823 14.1795C40.0823 15.0492 40.3973 15.5607 41.0275 15.6119C41.6576 15.5607 41.9726 15.1515 41.9726 14.2306Z" fill="#3C1D8F"/>
<path d="M46.3918 17.2506C45.9192 16.5343 45.7091 15.5623 45.7091 14.3345C45.7091 10.4977 45.7091 6.66081 45.7091 2.82394C46.4443 2.72163 46.8118 2.67047 47.4945 2.517C47.4945 6.55849 47.4945 10.6 47.4945 14.6415C47.4945 15.1531 47.5995 15.5623 47.757 15.8181C47.9146 16.0739 48.1246 16.2274 48.4397 16.2785C48.7547 16.3297 48.9648 16.2274 49.1223 16.0228C49.2799 15.8181 49.3849 15.4089 49.3849 14.8461C49.3849 10.6 49.3849 6.40502 49.3849 2.15889C50.0675 2.00541 50.4351 1.95426 51.1177 1.80078C51.1177 6.14923 51.1177 10.4977 51.1177 14.8461C51.1177 16.2274 50.9077 17.2506 50.4351 17.9156C49.9625 18.5295 49.3324 18.7341 48.4397 18.5807C47.547 18.4272 46.8643 17.9668 46.3918 17.2506Z" fill="#3C1D8F"/>
<path d="M53.1094 1.38492C54.1596 1.12913 54.6847 1.02681 55.7349 0.719861C56.6276 0.46407 57.3102 0.668703 57.7303 1.33376C58.1504 1.99882 58.3605 3.22661 58.3605 4.86368C58.3605 5.37526 58.3605 5.63105 58.3605 6.19379C58.3605 8.39359 57.9929 9.77486 57.2052 10.3376V10.3888C57.6253 10.6446 57.9404 11.1561 58.0979 11.9235C58.2555 12.6909 58.3605 13.714 58.3605 14.9418C58.3605 16.4254 58.3605 17.1928 58.3605 18.6764C58.3605 19.2903 58.3605 19.7507 58.413 20.16C58.413 20.5181 58.4655 20.9273 58.5705 21.3366C57.8354 21.0297 57.4678 20.9273 56.7851 20.6716C56.7326 20.3135 56.6801 20.0065 56.6801 19.6996C56.6801 19.3926 56.6276 18.881 56.6276 18.1136C56.6276 16.6301 56.6276 15.9138 56.6276 14.4303C56.6276 13.5094 56.5226 12.8444 56.3651 12.4862C56.2075 12.1281 55.8925 11.9235 55.5249 11.8723C55.2623 11.8723 55.1573 11.8212 54.8947 11.8212C54.8947 15.0953 54.8947 16.7324 54.8947 20.0065C54.2121 19.8019 53.8445 19.6996 53.1094 19.4949C53.1094 13.4583 53.1094 7.42159 53.1094 1.38492ZM55.5249 9.10981C55.8925 9.10981 56.155 8.95633 56.3125 8.59822C56.4701 8.29127 56.5751 7.72853 56.5751 6.96116C56.5751 6.34726 56.5751 6.04031 56.5751 5.42641C56.5751 4.7102 56.5226 4.19862 56.3651 3.89167C56.2075 3.58472 55.9975 3.4824 55.6824 3.53356C55.3673 3.58472 55.2098 3.63588 54.8947 3.68704C54.8947 5.88684 54.8947 6.96116 54.8947 9.16096C55.1573 9.10981 55.2623 9.10981 55.5249 9.10981Z" fill="#3C1D8F"/>
<path d="M4.06728 46.6652C3.36242 46.095 3.03711 44.7102 3.03711 42.5923C3.03711 42.0221 3.03711 41.6963 3.03711 41.1261C4.1215 40.4745 4.6637 40.2301 5.74809 39.6599C5.74809 40.3115 5.74809 40.6374 5.74809 41.3705C5.74809 42.9182 6.23607 43.4069 7.21202 42.9182C7.7 42.6738 8.07954 42.2665 8.35063 41.7778C8.62173 41.289 8.73017 40.6374 8.73017 39.8228C8.73017 38.8453 8.56751 38.1122 8.2422 37.542C7.91688 36.9718 7.26624 36.3202 6.29029 35.6685C5.09746 34.7725 4.28416 33.795 3.79618 32.8175C3.3082 31.8401 3.09133 30.5368 3.09133 29.0705C3.09133 27.0341 3.47087 25.3235 4.17572 24.1831C4.9348 22.9613 5.96497 22.3096 7.37468 22.1467C8.78439 21.9838 9.81457 22.3911 10.5194 23.2057C11.2243 24.1017 11.6038 25.405 11.5496 27.1156C11.5496 27.4414 11.5496 27.6858 11.5496 28.0116C10.4652 28.256 9.92301 28.3374 8.78439 28.6633C8.78439 28.1745 8.78439 27.9301 8.78439 27.5229C8.78439 26.7083 8.67595 26.2196 8.40485 25.8937C8.13375 25.5679 7.80844 25.4864 7.32046 25.5679C6.34451 25.7308 5.85653 26.6268 5.85653 28.1745C5.85653 29.0705 6.01919 29.8036 6.39873 30.4553C6.77826 31.107 7.37468 31.8401 8.35063 32.5732C9.54347 33.4692 10.3568 34.3652 10.8447 35.2612C11.3327 36.1573 11.5496 37.2162 11.4954 38.601C11.4954 40.393 11.1158 41.8592 10.3568 43.244C9.59769 44.6287 8.5133 45.6877 7.10358 46.5023C5.80231 46.991 4.77214 47.2354 4.06728 46.6652Z" fill="#3C1D8F"/>
<path d="M14.5866 21.4887C17.7856 21.2444 19.3579 21.1629 22.6111 21C22.6111 22.0589 22.6111 22.6291 22.6111 23.6881C20.5508 23.7695 19.5748 23.851 17.5145 24.0954C17.5145 26.2132 17.5145 27.2722 17.5145 29.39C19.1411 29.1457 19.9543 28.9827 21.5809 28.8198C21.5809 29.8788 21.5809 30.449 21.5809 31.5079C19.9543 31.7523 19.1411 31.8337 17.5145 32.1596C17.5145 34.6033 17.5145 35.8251 17.5145 38.2688C19.5206 37.6986 20.5508 37.5357 22.6111 37.2099C22.6111 38.2688 22.6111 38.839 22.6111 39.8979C19.3579 40.4681 17.7856 40.8754 14.5866 42.0973C14.5324 35.3364 14.5866 28.4126 14.5866 21.4887Z" fill="#3C1D8F"/>
<path d="M27.8659 20.9238C29.4383 20.9238 30.2516 20.9238 31.8782 20.9238C32.9083 27.196 33.9385 33.4681 34.9687 39.8218C33.7759 39.6588 33.1794 39.5774 31.9866 39.4959C31.7697 38.0297 31.6613 37.2151 31.4444 35.7489C31.4444 35.7489 31.4444 35.7489 31.4444 35.8304C30.0889 35.7489 29.4383 35.7489 28.0828 35.8304C27.8659 37.2966 27.7575 38.0297 27.5406 39.4959C26.4562 39.5774 25.8598 39.5774 24.7754 39.7403C25.8056 33.3867 26.8357 27.1145 27.8659 20.9238ZM31.1191 33.3052C30.5769 29.6397 30.3058 27.7662 29.8178 24.1006H29.7636C29.2756 27.7662 29.0045 29.5582 28.4623 33.3052C29.4925 33.3052 30.0347 33.3052 31.1191 33.3052Z" fill="#3C1D8F"/>
<path d="M38.7194 23.9252C37.4724 23.8437 36.876 23.7623 35.6289 23.7623C35.6289 22.7034 35.6289 22.1332 35.6289 21.0742C39.2616 21.2371 41.1051 21.3186 44.6836 21.6444C44.6836 22.8663 44.6836 23.4365 44.6836 24.6583C43.4365 24.4954 42.8401 24.4139 41.6473 24.251C41.6473 29.953 41.7015 35.7364 41.7557 41.4384C40.5629 41.0311 39.9665 40.8682 38.8279 40.6238C38.7737 33.9444 38.7737 30.6046 38.7194 23.9252Z" fill="#3C1D8F"/>
<path d="M48.1 42.9206C47.3952 41.6173 47.0156 40.1511 47.0156 38.359C47.0156 37.8703 47.0156 37.6259 47.0156 37.1372C48.1 37.5445 48.6422 37.7888 49.7808 38.1961C49.7808 38.8478 49.7808 39.1736 49.7808 39.7438C49.7808 41.21 50.2688 42.1875 51.299 42.7577C51.787 43.0021 52.1665 43.0835 52.3834 42.8391C52.6545 42.5948 52.7629 42.0246 52.7629 41.21C52.7629 40.2325 52.6003 39.1736 52.2207 38.2776C51.8954 37.3815 51.2448 36.1597 50.2688 34.7749C49.076 33.0643 48.2627 31.6796 47.7747 30.5392C47.2867 29.3988 47.0698 28.2584 47.0698 26.9551C47.0698 25.2445 47.4494 23.9412 48.1542 23.1266C48.9133 22.2306 49.9435 21.9048 51.3532 22.0677C52.7629 22.2306 53.7931 22.8823 54.4979 24.1041C55.2028 25.326 55.5281 27.0366 55.5281 29.073C55.5281 29.4803 55.5281 29.7246 55.5281 30.1319C54.4437 29.8061 53.9015 29.6432 52.8171 29.3173C52.8171 28.8286 52.8171 28.5842 52.8171 28.0955C52.8171 27.2809 52.7087 26.6293 52.4376 26.222C52.1665 25.8147 51.8412 25.5703 51.3532 25.4074C50.3772 25.2445 49.8893 25.8962 49.8893 27.3624C49.8893 28.177 50.0519 28.9915 50.4315 29.8061C50.811 30.6207 51.4616 31.6796 52.3834 33.1458C53.5762 34.9378 54.3895 36.6484 54.8775 38.0332C55.3112 39.418 55.5281 40.9656 55.5281 42.5948C55.5281 44.7126 55.1486 46.0974 54.4437 46.6676C53.7389 47.2378 52.6545 47.0749 51.2448 46.1789C49.8893 45.2828 48.8049 44.2239 48.1 42.9206Z" fill="#3C1D8F"/>
</svg>
